<?xml version="1.0" encoding="utf-8"?>
<!-- Generator: Adobe Illustrator 24.3.0, SVG Export Plug-In . SVG Version: 6.00 Build 0)  -->
<svg version="1.1" id="Layer_1" xmlns="http://www.w3.org/2000/svg" xmlns:xlink="http://www.w3.org/1999/xlink" x="0px" y="0px"
	 viewBox="0 0 3000 2300.7" style="enable-background:new 0 0 3000 2300.7;" xml:space="preserve">
<g>
	<g>
		<g>
			<path d="M162.26,1747.37l1.28,56.25v129.19l-1.28,56.25c0,2.9-1.59,5.45-4.14,6.17h-31.56c-3.82,0-7.33-2.54-9.24-6.53
				l-23.27-50.44l-50.37-115.77l-11.79-28.67l0.32,9.8v129.19l-1.28,56.25c0,3.63-2.23,6.17-5.1,6.17H6.38
				c-2.87,0-5.1-2.54-5.42-6.17L0,1932.81v-129.19l0.96-56.25c0.32-3.27,2.55-6.17,5.42-6.17h29.97c4.14,0,7.97,2.9,9.88,6.9
				l26.14,58.43l50.37,115.77l8.93,21.77l-0.32-11.25v-129.19l0.96-56.25c0.32-3.27,2.55-6.17,5.42-6.17h19.45
				C160.03,1741.2,162.26,1744.1,162.26,1747.37z"/>
			<path d="M381.29,1748.45v20.69c0,3.27-2.23,5.81-5.42,5.81l-104.24,1.09l0.32,27.58v53.71l72.36,0.72
				c2.87,0.36,5.42,2.9,5.42,6.17v20.68c0,3.27-2.55,5.81-5.42,5.81l-72.36,1.09v41.01l-0.32,27.58l104.24,1.09
				c3.19,0,5.42,2.54,5.42,5.81v20.68c0,3.27-2.23,6.17-5.42,6.17l-129.43,1.09c-2.87,0-5.42-2.54-5.42-6.17l-0.96-56.25v-129.19
				l0.96-56.25c0-3.27,2.55-6.17,5.42-6.17l129.43,1.09C378.74,1742.29,381.29,1744.83,381.29,1748.45z"/>
			<path d="M589.47,1748.45v20.69c0,3.27-2.23,5.81-5.42,5.81l-104.24,1.09l0.32,27.58v53.71l72.36,0.72
				c2.87,0.36,5.42,2.9,5.42,6.17v20.68c0,3.27-2.55,5.81-5.42,5.81l-72.36,1.09v41.01l-0.32,27.58l104.24,1.09
				c3.19,0,5.42,2.54,5.42,5.81v20.68c0,3.27-2.23,6.17-5.42,6.17l-129.43,1.09c-2.87,0-5.42-2.54-5.42-6.17l-0.96-56.25v-129.19
				l0.96-56.25c0-3.27,2.55-6.17,5.42-6.17l129.43,1.09C586.92,1742.29,589.47,1744.83,589.47,1748.45z"/>
			<path d="M835.58,1868.21c0,70.04-51.32,127.02-112.85,127.02h-63.12c-2.87,0-5.42-2.54-5.42-6.17l-0.96-56.25v-129.19l0.96-56.25
				c0-3.27,2.55-6.17,5.42-6.17h19.45h43.67C784.26,1741.2,835.58,1798.17,835.58,1868.21z M803.71,1868.21
				c0-50.81-36.34-93.26-80.97-93.26l-37.94-0.36l0.32,29.03v129.19l-0.32,29.03l37.94-0.36
				C767.36,1961.48,803.71,1919.38,803.71,1868.21z"/>
			<path d="M1025.28,1967.29v20.68c0,3.27-2.23,6.17-5.42,6.17l-114.13,1.09c-2.87,0-5.42-2.54-5.42-6.17l-0.96-56.25v-129.19
				l0.96-56.25c0-3.27,2.55-6.17,5.42-6.17h19.13c2.87,0,5.42,2.9,5.42,6.17l0.96,56.25v129.19l-0.64,27.58l89.26,1.09
				C1023.05,1961.48,1025.28,1964.02,1025.28,1967.29z"/>
			<path d="M1230.28,1748.45v20.69c0,3.27-2.23,5.81-5.42,5.81l-104.24,1.09l0.32,27.58v53.71l72.36,0.72
				c2.87,0.36,5.42,2.9,5.42,6.17v20.68c0,3.27-2.55,5.81-5.42,5.81l-72.36,1.09v41.01l-0.32,27.58l104.24,1.09
				c3.19,0,5.42,2.54,5.42,5.81v20.68c0,3.27-2.23,6.17-5.42,6.17l-129.43,1.09c-2.87,0-5.42-2.54-5.42-6.17l-0.96-56.25v-129.19
				l0.96-56.25c0-3.27,2.55-6.17,5.42-6.17l129.43,1.09C1227.73,1742.29,1230.28,1744.83,1230.28,1748.45z"/>
			<path d="M1649.84,1985.07l-10.84,11.61c-2.23,2.9-6.69,2.54-8.93-0.36l-19.45-23.23c-18.17,19.23-40.17,30.12-64.71,30.12
				c-78.1,0-98.18-107.06-40.49-164.39c-35.38-99.44,82.25-154.96,124.97-62.78c1.59,3.63,0,8.35-3.51,10.16l-13.71,6.17
				c-3.19,1.45-6.7,0-8.29-3.27c-19.13-40.28-72.68-34.84-77.15,6.89c-5.74,36.65,26.46,60.97,81.29,127.74
				c4.14-9.08,7.33-18.87,9.24-28.31c0.96-3.99,4.14-6.53,7.65-5.81l14.67,2.54c3.82,0.72,6.37,4.72,5.1,9.07
				c-3.19,15.97-8.61,32.3-17.21,46.82c9.56,11.61,17.21,21.05,22,26.49C1652.7,1977.45,1652.7,1982.53,1649.84,1985.07z
				 M1591.82,1949.5c-25.19-30.48-54.83-66.77-69.5-84.92c-40.8,39.92-24.55,110.33,29.96,106.7
				C1567.59,1969.46,1580.98,1961.12,1591.82,1949.5z"/>
			<path d="M2059.84,1985.43c2.23,4.36-0.32,9.8-4.78,9.8h-20.4c-1.91,0-3.82-1.09-4.78-2.9l-64.08-115.04l-23.59,35.2v20.32
				l-0.96,56.25c0,3.63-2.55,6.17-5.42,6.17h-19.13c-3.19,0-5.42-2.54-5.42-6.17l-0.96-56.25v-129.19l0.96-56.25
				c0-3.27,2.23-6.17,5.42-6.17h19.13c2.87,0,5.42,2.9,5.42,6.17l0.96,56.25v52.62l76.51-112.5c0.96-1.45,2.55-2.54,4.46-2.54h22.31
				c4.46,0,7.01,6.17,4.14,10.16l-64.4,96.53L2059.84,1985.43z"/>
			<path d="M2286.83,1747.37l1.28,56.25v129.19l-1.28,56.25c0,2.9-1.59,5.45-4.14,6.17h-31.56c-3.82,0-7.33-2.54-9.24-6.53
				l-23.27-50.44l-50.37-115.77l-11.79-28.67l0.32,9.8v129.19l-1.28,56.25c0,3.63-2.23,6.17-5.1,6.17h-19.45
				c-2.87,0-5.1-2.54-5.42-6.17l-0.96-56.25v-129.19l0.96-56.25c0.32-3.27,2.55-6.17,5.42-6.17h29.97c4.14,0,7.97,2.9,9.88,6.9
				l26.14,58.43l50.37,115.77l8.93,21.77l-0.32-11.25v-129.19l0.96-56.25c0.32-3.27,2.55-6.17,5.42-6.17h19.45
				C2284.6,1741.2,2286.83,1744.1,2286.83,1747.37z"/>
			<path d="M2505.85,1748.45v20.69c0,3.27-2.23,5.81-5.42,5.81l-104.24,1.09l0.32,27.58v53.71l72.36,0.72
				c2.87,0.36,5.42,2.9,5.42,6.17v20.68c0,3.27-2.55,5.81-5.42,5.81l-72.36,1.09v41.01l-0.32,27.58l104.24,1.09
				c3.19,0,5.42,2.54,5.42,5.81v20.68c0,3.27-2.23,6.17-5.42,6.17l-129.43,1.09c-2.87,0-5.42-2.54-5.42-6.17l-0.96-56.25v-129.19
				l0.96-56.25c0-3.27,2.55-6.17,5.42-6.17l129.43,1.09C2503.3,1742.29,2505.85,1744.83,2505.85,1748.45z"/>
			<path d="M2753.24,1982.89c1.91,6.17-1.91,12.34-7.33,12.34h-14.34c-3.19,0-6.06-2.18-7.33-5.81l-24.23-63.87l-14.98,0.72h-46.22
				l-15.3-1.09l-24.23,64.23c-0.96,3.63-3.82,5.81-7.33,5.81h-14.35c-5.42,0-9.24-6.17-7.33-12.34l19.45-59.52l21.04-61.33
				l40.17-115.04c1.27-3.27,4.14-5.81,7.33-5.81h6.7c3.19,0,6.06,2.54,7.33,5.81l40.49,115.04l21.04,61.33L2753.24,1982.89z
				 M2678.33,1862.05l-16.58-51.53l-16.58,51.53l-10.2,29.39h53.56L2678.33,1862.05z"/>
			<path d="M3000,1868.21c0,70.04-51.32,127.02-112.85,127.02h-63.12c-2.87,0-5.42-2.54-5.42-6.17l-0.96-56.25v-129.19l0.96-56.25
				c0-3.27,2.55-6.17,5.42-6.17h19.45h43.67C2948.68,1741.2,3000,1798.17,3000,1868.21z M2968.12,1868.21
				c0-50.81-36.34-93.26-80.97-93.26l-37.94-0.36l0.32,29.03v129.19l-0.32,29.03l37.94-0.36
				C2931.78,1961.48,2968.12,1919.38,2968.12,1868.21z"/>
		</g>
	</g>
	<g>
		<path d="M500.88,2168.12l0.49,29.15v66.95l-0.49,29.15c0,1.88-1.16,3.2-2.64,3.2h-10.08c-1.49,0-2.64-1.32-2.81-3.2l-0.5-29.15
			v-21.63l-20.65,0.56h-7.43l-18.5-0.56v21.63l-0.49,29.15c-0.16,1.88-1.32,3.2-2.81,3.2h-10.08c-1.48,0-2.64-1.32-2.64-3.2
			l-0.49-29.15v-66.95l0.49-29.15c0-1.69,1.16-3.2,2.64-3.2h10.08c1.49,0,2.64,1.51,2.81,3.2l0.49,29.15v28.02l18.5-0.38h7.43
			l20.65,0.57v-28.21l0.5-29.15c0.16-1.69,1.32-3.2,2.81-3.2h10.08C499.72,2164.92,500.88,2166.43,500.88,2168.12z"/>
		<path d="M627.4,2168.68v10.72c0,1.69-1.16,3.01-2.81,3.01l-54.02,0.56l0.16,14.29v27.83l37.5,0.38c1.49,0.19,2.81,1.5,2.81,3.2
			v10.72c0,1.69-1.32,3.01-2.81,3.01l-37.5,0.56v21.25l-0.16,14.29l54.02,0.56c1.65,0,2.81,1.32,2.81,3.01v10.72
			c0,1.69-1.16,3.2-2.81,3.2l-67.07,0.56c-1.49,0-2.81-1.32-2.81-3.2l-0.49-29.15v-66.95l0.49-29.15c0-1.69,1.32-3.2,2.81-3.2
			l67.07,0.57C626.07,2165.49,627.4,2166.8,627.4,2168.68z"/>
		<path d="M772.09,2290.17c0.99,3.2-0.99,6.39-3.8,6.39h-7.43c-1.65,0-3.14-1.13-3.8-3.01l-12.55-33.1l-7.76,0.38h-23.95l-7.93-0.56
			l-12.55,33.28c-0.49,1.88-1.98,3.01-3.8,3.01h-7.43c-2.81,0-4.79-3.2-3.8-6.39l10.08-30.84l10.9-31.78l20.81-59.61
			c0.66-1.69,2.15-3.01,3.8-3.01h3.47c1.65,0,3.14,1.32,3.8,3.01l20.98,59.61l10.9,31.78L772.09,2290.17z M733.27,2227.54
			l-8.59-26.71l-8.59,26.71l-5.29,15.23h27.75L733.27,2227.54z"/>
		<path d="M887.21,2282.08v10.72c0,1.69-1.16,3.2-2.81,3.2l-59.14,0.56c-1.48,0-2.81-1.32-2.81-3.2l-0.49-29.15v-66.95l0.49-29.15
			c0-1.69,1.32-3.2,2.81-3.2h9.91c1.49,0,2.81,1.51,2.81,3.2l0.49,29.15v66.95l-0.33,14.29l46.25,0.56
			C886.05,2279.07,887.21,2280.39,887.21,2282.08z"/>
		<path d="M997.21,2168.68v10.72c0,1.69-1.16,3.01-2.81,3.2l-33.37,0.56l0.16,14.1v66.95l-0.49,29.15c0,1.88-1.32,3.2-2.81,3.2
			h-9.91c-1.49,0-2.81-1.32-2.81-3.2l-0.49-29.15v-66.95l0.16-14.1l-33.37-0.56c-1.65-0.19-2.81-1.51-2.81-3.2v-10.72
			c0-1.69,1.15-3.01,2.81-3.2l29.57-0.57h23.79l29.57,0.57C996.06,2165.67,997.21,2166.99,997.21,2168.68z"/>
		<path d="M1127.53,2168.12l0.49,29.15v66.95l-0.49,29.15c0,1.88-1.16,3.2-2.64,3.2h-10.08c-1.49,0-2.64-1.32-2.81-3.2l-0.5-29.15
			v-21.63l-20.65,0.56h-7.43l-18.5-0.56v21.63l-0.49,29.15c-0.16,1.88-1.32,3.2-2.81,3.2h-10.08c-1.48,0-2.64-1.32-2.64-3.2
			l-0.49-29.15v-66.95l0.49-29.15c0-1.69,1.16-3.2,2.64-3.2h10.08c1.49,0,2.64,1.51,2.81,3.2l0.49,29.15v28.02l18.5-0.38h7.43
			l20.65,0.57v-28.21l0.5-29.15c0.16-1.69,1.32-3.2,2.81-3.2h10.08C1126.38,2164.92,1127.53,2166.43,1127.53,2168.12z"/>
		<path d="M1386.69,2291.29l-5.62,6.02c-1.16,1.51-3.47,1.32-4.63-0.19l-10.08-12.04c-9.42,9.97-20.81,15.61-33.53,15.61
			c-40.47,0-50.88-55.48-20.98-85.19c-18.34-51.53,42.62-80.3,64.76-32.54c0.83,1.88,0,4.33-1.82,5.27l-7.1,3.2
			c-1.65,0.75-3.47,0-4.29-1.69c-9.91-20.88-37.67-18.05-39.98,3.57c-2.97,18.99,13.71,31.59,42.12,66.19
			c2.15-4.7,3.8-9.78,4.79-14.67c0.49-2.07,2.15-3.38,3.96-3.01l7.6,1.31c1.98,0.38,3.3,2.45,2.64,4.7
			c-1.65,8.27-4.46,16.74-8.92,24.26c4.95,6.02,8.92,10.91,11.4,13.73C1388.17,2287.34,1388.17,2289.98,1386.69,2291.29z
			 M1356.62,2272.86c-13.05-15.8-28.41-34.6-36.01-44c-21.14,20.69-12.72,57.17,15.53,55.29
			C1344.07,2283.21,1351.01,2278.88,1356.62,2272.86z"/>
		<path d="M1696.06,2171.32l-8.1,35.54l-6.44,26.33l-15.36,60.36c-0.49,1.88-2.15,3.01-3.8,3.01h-8.76c-1.82,0-3.3-1.13-3.8-3.01
			l-6.94-22l-10.9-38.37l-6.44-24.45l-6.44,24.45l-10.9,38.37l-6.94,22c-0.49,1.88-1.98,3.01-3.8,3.01h-8.76
			c-1.65,0-3.3-1.13-3.8-3.01l-15.36-60.36l-6.44-26.33l-8.09-35.54c-1.16-3.01,0.82-6.4,3.8-6.4h8.1c1.65,0,3.3,1.32,3.8,3.01
			l10.24,38.93l6.61,26.33l5.62,25.01l7.27-25.01l8.26-26.33l7.43-21.25c0.5-1.88,1.98-3.01,3.8-3.01h11.23
			c1.65,0,3.3,1.13,3.8,3.01l7.27,21.25l8.43,26.33l7.27,25.01l5.62-25.01l6.61-26.33l10.24-38.93c0.49-1.69,2.15-3.01,3.8-3.01h8.1
			C1695.23,2164.92,1697.22,2168.31,1696.06,2171.32z"/>
		<path d="M1819.1,2168.68v10.72c0,1.69-1.16,3.01-2.81,3.01l-54.02,0.56l0.16,14.29v27.83l37.5,0.38c1.49,0.19,2.81,1.5,2.81,3.2
			v10.72c0,1.69-1.32,3.01-2.81,3.01l-37.5,0.56v21.25l-0.16,14.29l54.02,0.56c1.65,0,2.81,1.32,2.81,3.01v10.72
			c0,1.69-1.16,3.2-2.81,3.2l-67.07,0.56c-1.49,0-2.81-1.32-2.81-3.2l-0.49-29.15v-66.95l0.49-29.15c0-1.69,1.32-3.2,2.81-3.2
			l67.07,0.57C1817.78,2165.49,1819.1,2166.8,1819.1,2168.68z"/>
		<path d="M1933.89,2282.08v10.72c0,1.69-1.16,3.2-2.81,3.2l-59.14,0.56c-1.48,0-2.81-1.32-2.81-3.2l-0.49-29.15v-66.95l0.49-29.15
			c0-1.69,1.32-3.2,2.81-3.2h9.91c1.49,0,2.81,1.51,2.81,3.2l0.49,29.15v66.95l-0.33,14.29l46.25,0.56
			C1932.74,2279.07,1933.89,2280.39,1933.89,2282.08z"/>
		<path d="M2048.69,2282.08v10.72c0,1.69-1.16,3.2-2.81,3.2l-59.14,0.56c-1.48,0-2.81-1.32-2.81-3.2l-0.49-29.15v-66.95l0.49-29.15
			c0-1.69,1.32-3.2,2.81-3.2h9.91c1.49,0,2.81,1.51,2.81,3.2l0.49,29.15v66.95l-0.33,14.29l46.25,0.56
			C2047.53,2279.07,2048.69,2280.39,2048.69,2282.08z"/>
		<path d="M2182.31,2168.12l0.66,29.15v66.95l-0.66,29.15c0,1.51-0.82,2.82-2.15,3.2h-16.35c-1.98,0-3.8-1.32-4.79-3.39
			l-12.06-26.14l-26.1-59.99l-6.11-14.85l0.17,5.08v66.95l-0.66,29.15c0,1.88-1.16,3.2-2.64,3.2h-10.07c-1.49,0-2.64-1.32-2.81-3.2
			l-0.49-29.15v-66.95l0.49-29.15c0.16-1.69,1.32-3.2,2.81-3.2h15.53c2.15,0,4.13,1.51,5.12,3.57l13.55,30.28l26.1,59.99l4.62,11.28
			l-0.16-5.83v-66.95l0.5-29.15c0.17-1.69,1.32-3.2,2.81-3.2h10.08C2181.16,2164.92,2182.31,2166.43,2182.31,2168.12z"/>
		<path d="M2312.3,2168.68v10.72c0,1.69-1.16,3.01-2.81,3.01l-54.02,0.56l0.17,14.29v27.83l37.5,0.38c1.49,0.19,2.81,1.5,2.81,3.2
			v10.72c0,1.69-1.32,3.01-2.81,3.01l-37.5,0.56v21.25l-0.17,14.29l54.02,0.56c1.65,0,2.81,1.32,2.81,3.01v10.72
			c0,1.69-1.16,3.2-2.81,3.2l-67.07,0.56c-1.49,0-2.81-1.32-2.81-3.2l-0.49-29.15v-66.95l0.49-29.15c0-1.69,1.32-3.2,2.81-3.2
			l67.07,0.57C2310.98,2165.49,2312.3,2166.8,2312.3,2168.68z"/>
		<path d="M2442.29,2191.44c0.99,1.69,0.49,3.95-0.99,4.89l-9.25,6.02c-1.32,0.75-2.97,0.38-3.8-1.13
			c-7.6-12.97-19-18.62-33.2-16.17c-19,3.2-25.27,19.75-11.4,31.41c15.86,13.54,45.59,5.45,53.69,34.6
			c7.77,28.02-13.54,45.7-39.32,45.7c-18.5,0-33.04-8.09-42.29-25.39c-0.99-1.69-0.33-3.76,1.16-4.7l9.58-5.64
			c1.16-0.75,2.81-0.56,3.63,0.75c6.44,9.59,15.36,15.8,27.75,15.8c29.57,0,32.71-26.33,3.14-33.47
			c-8.76-2.26-18.67-5.08-27.26-12.04c-27.09-22.57-15.69-59.99,18.67-66.01C2413.55,2162.48,2429.24,2169.44,2442.29,2191.44z"/>
		<path d="M2577.73,2191.44c0.99,1.69,0.49,3.95-0.99,4.89l-9.25,6.02c-1.32,0.75-2.97,0.38-3.8-1.13
			c-7.6-12.97-19-18.62-33.2-16.17c-19,3.2-25.27,19.75-11.4,31.41c15.86,13.54,45.59,5.45,53.69,34.6
			c7.77,28.02-13.54,45.7-39.32,45.7c-18.5,0-33.04-8.09-42.29-25.39c-0.99-1.69-0.33-3.76,1.16-4.7l9.58-5.64
			c1.16-0.75,2.81-0.56,3.63,0.75c6.44,9.59,15.36,15.8,27.75,15.8c29.57,0,32.71-26.33,3.14-33.47
			c-8.76-2.26-18.67-5.08-27.26-12.04c-27.09-22.57-15.69-59.99,18.67-66.01C2548.99,2162.48,2564.68,2169.44,2577.73,2191.44z"/>
	</g>
	<g>
		<path d="M1426.9,389.98c-16.03,0-29.03,14.8-29.03,33.05v729c0,176.2-125.92,319.55-280.71,319.55
			c-154.78,0-280.71-143.35-280.71-319.55v-729c0-18.25-13-33.05-29.03-33.05c-16.03,0-29.03,14.8-29.03,33.05v729
			c0,212.65,151.97,385.65,338.77,385.65c186.8,0,338.77-173,338.77-385.65v-729C1455.93,404.77,1442.94,389.98,1426.9,389.98z"/>
		<path d="M967.04,1027.16c16.03,0,29.03-14.8,29.03-33.05V232.01c0-18.25-13-33.05-29.03-33.05c-16.03,0-29.03,14.8-29.03,33.05
			v762.11C938.01,1012.37,951.01,1027.16,967.04,1027.16z"/>
		<polygon points="1137.33,420.62 1095.79,373.33 1117.16,1214.76 		"/>
		<polygon points="1139.17,347.74 1093.83,296.12 1094.68,329.53 1138.38,379.28 		"/>
		<polygon points="1141.02,274.85 1091.88,218.9 1092.72,252.31 1140.23,306.39 		"/>
		<path d="M1267.28,1027.16c16.03,0,29.03-14.8,29.03-33.05V232.01c0-18.25-13-33.05-29.03-33.05c-16.03,0-29.03,14.8-29.03,33.05
			v762.11C1238.25,1012.37,1251.25,1027.16,1267.28,1027.16z"/>
		<path d="M1089.82,138.14l0.95,36.95l51.31,58.41l2.43-95.36c21.54-11.66,36.42-36.65,36.42-65.56c0-40.02-28.61-72.59-63.76-72.59
			c-35.15,0-63.76,32.57-63.76,72.59C1053.4,101.49,1068.28,126.49,1089.82,138.14z M1117.16,24.04c23.54,0,42.65,21.75,42.65,48.55
			c0,14.54-5.65,27.64-14.57,36.47c-7.5,7.57-17.31,12.08-28.08,12.08s-20.59-4.51-28.08-12.08c-8.92-8.83-14.57-21.93-14.57-36.47
			C1074.51,45.79,1093.62,24.04,1117.16,24.04z"/>
		<path d="M2192.58,389.98c-16.03,0-29.03,14.8-29.03,33.05v729c0,176.2-125.92,319.55-280.71,319.55
			c-154.78,0-280.71-143.35-280.71-319.55v-729c0-18.25-13-33.05-29.03-33.05c-16.03,0-29.03,14.8-29.03,33.05v729
			c0,212.65,151.97,385.65,338.77,385.65c186.8,0,338.77-173,338.77-385.65v-729C2221.61,404.77,2208.61,389.98,2192.58,389.98z"/>
		<path d="M1732.72,1027.16c16.03,0,29.03-14.8,29.03-33.05V232.01c0-18.25-13-33.05-29.03-33.05c-16.03,0-29.03,14.8-29.03,33.05
			v762.11C1703.69,1012.37,1716.68,1027.16,1732.72,1027.16z"/>
		<polygon points="1903,420.62 1861.46,373.33 1882.84,1214.76 		"/>
		<polygon points="1904.85,347.74 1859.51,296.12 1860.35,329.53 1904.06,379.28 		"/>
		<polygon points="1906.7,274.85 1857.55,218.9 1858.4,252.31 1905.9,306.39 		"/>
		<path d="M2032.95,1027.16c16.03,0,29.03-14.8,29.03-33.05V232.01c0-18.25-13-33.05-29.03-33.05s-29.03,14.8-29.03,33.05v762.11
			C2003.92,1012.37,2016.92,1027.16,2032.95,1027.16z"/>
		<path d="M1855.49,138.14l0.95,36.95l51.31,58.41l2.43-95.36c21.54-11.66,36.42-36.65,36.42-65.56c0-40.02-28.61-72.59-63.76-72.59
			c-35.15,0-63.76,32.57-63.76,72.59C1819.07,101.49,1833.96,126.49,1855.49,138.14z M1882.84,24.04
			c23.54,0,42.65,21.75,42.65,48.55c0,14.54-5.65,27.64-14.57,36.47c-7.5,7.57-17.31,12.08-28.08,12.08
			c-10.77,0-20.59-4.51-28.08-12.08c-8.92-8.83-14.57-21.93-14.57-36.47C1840.19,45.79,1859.29,24.04,1882.84,24.04z"/>
	</g>
</g>
</svg>
